<?xml version="1.0" encoding="utf-8"?>
<svg xmlns="http://www.w3.org/2000/svg" xmlns:sodipodi="http://sodipodi.sourceforge.net/DTD/sodipodi-0.dtd" xmlns:inkscape="http://www.inkscape.org/namespaces/inkscape" width="96" height="96">
  <sodipodi:namedview inkscape:pagecheckerboard="true" showgrid="true">
    <inkscape:grid type="xygrid" empspacing="6" snapvisiblegridlinesonly="false" />
  </sodipodi:namedview>
  <rect x="0" y="0" width="96" height="96" rx="15" fill="white" />s
  <g fill="#369">
    <path d="M 0 63 Q 0 60.6 1.1 59.7 Q 2.3 58.8 3.8 58.8 Q 5.4 58.8 6.6 59.7 Q 7.8 60.6 7.8 63 Q 7.8 65.2 6.6 66.2 Q 5.4 67.2 3.8 67.2 Q 2.3 67.2 1.1 66.2 Q 0 65.2 0 63 Z" />
    <path d="M 18 63 Q 18 60.6 19.1 59.7 Q 20.3 58.8 21.8 58.8 Q 23.4 58.8 24.6 59.7 Q 25.8 60.6 25.8 63 Q 25.8 65.2 24.6 66.2 Q 23.4 67.2 21.8 67.2 Q 20.3 67.2 19.1 66.2 Q 18 65.2 18 63 Z" />
    <path d="M 54.8 9 V 9.9 Q 54 11.6 52.4 14.3 Q 50.8 17 49.1 19.7 Q 47.2 22.3 45.7 24 H 42 V 22.9 Q 42.9 21.2 44 18.8 Q 45.2 16.2 46.3 13.7 Q 47.3 11.1 48 9 Z" />
    <path d="M 92.8 13 Q 92.4 18.4 89.8 21.3 Q 87.2 24 81.5 24 Q 75.7 24 73.2 21.3 Q 70.8 18.5 70.5 13 H 75.4 Q 75.7 16.9 77.1 18.3 Q 78.5 19.6 81.6 19.6 Q 84.4 19.6 85.9 18.2 Q 87.5 16.8 87.8 13 Z" />
    <path d="M 28.9 30 H 34.8 L 42.2 50.5 Q 43.1 53.2 43.9 55.7 Q 44.7 58.1 45.1 60.3 H 45.3 Q 45.7 58.6 46.5 55.9 Q 47.4 53.2 48.2 50.4 L 55.2 30 H 61.2 L 46.5 71 Q 44.7 76.1 41.9 79.1 Q 39.1 82.1 34.1 82.1 Q 32.6 82.1 31.5 81.9 Q 30.3 81.8 29.5 81.6 V 76.9 Q 30.2 77 31.1 77.2 Q 32.2 77.3 33.2 77.3 Q 36.2 77.3 37.9 75.5 Q 39.7 73.8 40.8 70.9 L 42.6 66.1 Z" />
    <path d="M 71.3 30 V 52 Q 71.3 52.8 71.2 54.5 Q 71.2 56 71 57.7 Q 71 59.3 70.9 60.2 L 89.1 30 H 96 V 66 H 90.8 V 44.8 Q 90.8 43.7 90.8 42 Q 90.8 40.2 90.9 38.5 Q 91 36.8 91 35.9 L 72.9 66 H 66 V 30 Z" />
  </g>
</svg>